<svg width="25" height="23" viewBox="0 0 25 23" fill="none" xmlns="http://www.w3.org/2000/svg">
<path d="M23.6998 9.99063C23.6991 9.99012 23.6985 9.98944 23.698 9.98893L14.0695 0.913066C13.6591 0.526029 13.1134 0.312988 12.533 0.312988C11.9526 0.312988 11.407 0.526029 10.9964 0.913066L1.37291 9.98435C1.36967 9.9874 1.36624 9.99063 1.36318 9.99368C0.520394 10.7927 0.521834 12.0891 1.36732 12.8861C1.7536 13.2504 2.2636 13.4612 2.80907 13.4835C2.8314 13.4855 2.85373 13.4865 2.87624 13.4865H3.25982V20.1656C3.25982 21.4875 4.40082 22.5629 5.80313 22.5629H9.57011C9.95206 22.5629 10.2616 22.2709 10.2616 21.911V16.6745C10.2616 16.0714 10.7822 15.5808 11.4221 15.5808H13.6439C14.2838 15.5808 14.8042 16.0714 14.8042 16.6745V21.911C14.8042 22.2709 15.1138 22.5629 15.4957 22.5629H19.2627C20.6652 22.5629 21.806 21.4875 21.806 20.1656V13.4865H22.1619C22.7421 13.4865 23.2878 13.2735 23.6985 12.8863C24.5449 12.0881 24.5453 10.7893 23.6998 9.99063ZM22.7205 11.9645C22.5712 12.1052 22.3727 12.1828 22.1619 12.1828H21.1145C20.7326 12.1828 20.423 12.4746 20.423 12.8347V20.1656C20.423 20.7686 19.9025 21.2592 19.2627 21.2592H16.1873V16.6745C16.1873 15.3526 15.0464 14.2771 13.6439 14.2771H11.4221C10.0196 14.2771 8.87859 15.3526 8.87859 16.6745V21.2592H5.80313C5.16347 21.2592 4.64285 20.7686 4.64285 20.1656V12.8347C4.64285 12.4746 4.33329 12.1828 3.95134 12.1828H2.92198C2.91118 12.1821 2.90055 12.1816 2.88957 12.1815C2.68355 12.1781 2.49032 12.101 2.34554 11.9643C2.03759 11.6741 2.03759 11.2016 2.34554 10.9112C2.34572 10.9112 2.34572 10.911 2.3459 10.9109L2.34644 10.9104L11.9746 1.83483C12.1237 1.6941 12.322 1.61669 12.533 1.61669C12.7439 1.61669 12.9422 1.6941 13.0914 1.83483L22.7174 10.9085C22.7189 10.9098 22.7205 10.9112 22.7219 10.9126C23.0283 11.2033 23.0277 11.6748 22.7205 11.9645Z" fill="#747474"/>
</svg>
