<svg width="28" height="28" viewBox="0 0 28 28" fill="none" xmlns="http://www.w3.org/2000/svg">
<path d="M11.193 4.59667C11.298 3.96433 11.8463 3.5 12.488 3.5H15.5132C16.1548 3.5 16.7032 3.96433 16.8082 4.59667L17.0567 6.09117C17.1302 6.5275 17.4218 6.8915 17.8092 7.10617C17.8955 7.15283 17.9807 7.203 18.0658 7.25433C18.4438 7.483 18.9058 7.55417 19.32 7.399L20.7398 6.867C21.0308 6.75758 21.3512 6.75498 21.6439 6.85966C21.9366 6.96435 22.1826 7.16953 22.3382 7.43867L23.8502 10.0602C24.0054 10.3293 24.0601 10.6448 24.0046 10.9505C23.949 11.2562 23.7868 11.5323 23.5468 11.7297L22.3767 12.6945C22.0348 12.9745 21.8657 13.4097 21.8738 13.8518C21.8757 13.951 21.8757 14.0502 21.8738 14.1493C21.8657 14.5903 22.0349 15.0243 22.3755 15.3043L23.548 16.2703C24.0427 16.6787 24.171 17.3833 23.8513 17.9387L22.337 20.5602C22.1817 20.8292 21.9359 21.0345 21.6434 21.1394C21.351 21.2443 21.0308 21.242 20.7398 21.133L19.32 20.601C18.9058 20.4458 18.445 20.517 18.0647 20.7457C17.9801 20.7971 17.8945 20.8469 17.808 20.895C17.4218 21.1085 17.1302 21.4725 17.0567 21.9088L16.8082 23.4022C16.7032 24.0357 16.1548 24.5 15.5132 24.5H12.4868C11.8452 24.5 11.2968 24.0357 11.1918 23.4033L10.9433 21.9088C10.871 21.4725 10.5793 21.1085 10.192 20.8938C10.1055 20.8461 10.0199 20.7967 9.93535 20.7457C9.55618 20.517 9.09535 20.4458 8.68002 20.601L7.26018 21.133C6.96937 21.2421 6.64928 21.2445 6.35683 21.1399C6.06439 21.0352 5.81854 20.8302 5.66302 20.5613L4.14985 17.9398C3.99462 17.6707 3.9399 17.3552 3.99545 17.0495C4.05099 16.7438 4.21319 16.4677 4.45318 16.2703L5.62452 15.3055C5.96518 15.0255 6.13435 14.5903 6.12618 14.1482C6.12436 14.049 6.12436 13.9498 6.12618 13.8507C6.13435 13.4097 5.96518 12.9757 5.62452 12.6957L4.45318 11.7297C4.21348 11.5324 4.05147 11.2565 3.99593 10.9511C3.9404 10.6456 3.99493 10.3304 4.14985 10.0613L5.66302 7.43983C5.8184 7.17049 6.06436 6.96507 6.35708 6.86016C6.6498 6.75525 6.97025 6.75768 7.26135 6.867L8.68002 7.399C9.09535 7.55417 9.55618 7.483 9.93535 7.25433C10.0193 7.203 10.1057 7.15283 10.192 7.105C10.5793 6.8915 10.871 6.5275 10.9433 6.09117L11.193 4.59667Z" stroke="#747474" stroke-width="1.5" stroke-linecap="round" stroke-linejoin="round"/>
<path d="M17.5 14C17.5 14.9283 17.1313 15.8185 16.4749 16.4749C15.8185 17.1313 14.9283 17.5 14 17.5C13.0717 17.5 12.1815 17.1313 11.5251 16.4749C10.8687 15.8185 10.5 14.9283 10.5 14C10.5 13.0717 10.8687 12.1815 11.5251 11.5251C12.1815 10.8687 13.0717 10.5 14 10.5C14.9283 10.5 15.8185 10.8687 16.4749 11.5251C17.1313 12.1815 17.5 13.0717 17.5 14Z" stroke="#747474" stroke-width="1.5" stroke-linecap="round" stroke-linejoin="round"/>
</svg>
