<svg width="175" height="175" viewBox="0 0 175 175" fill="none" xmlns="http://www.w3.org/2000/svg">
<mask id="mask0_9_133" style="mask-type:luminance" maskUnits="userSpaceOnUse" x="0" y="0" width="175" height="175">
<path d="M87.4989 0C135.792 0 175 39.2075 175 87.5C175 135.794 135.792 175 87.4989 175C39.2064 175 2.20487e-08 135.792 2.20487e-08 87.5C-0.0010736 39.2075 39.2064 0 87.4989 0Z" fill="white"/>
</mask>
<g mask="url(#mask0_9_133)">
<path fill-rule="evenodd" clip-rule="evenodd" d="M114.758 72.8354C121.575 72.8354 127.11 78.371 127.11 85.1885C127.11 92.0049 121.575 97.5405 114.758 97.5405C107.941 97.5405 102.405 92.0049 102.405 85.1885C102.405 78.371 107.94 72.8354 114.758 72.8354Z" fill="white"/>
</g>
<mask id="mask1_9_133" style="mask-type:luminance" maskUnits="userSpaceOnUse" x="0" y="0" width="175" height="175">
<path d="M87.4989 0C135.792 0 175 39.2075 175 87.5C175 135.794 135.792 175 87.4989 175C39.2064 175 2.20487e-08 135.792 2.20487e-08 87.5C-0.0010736 39.2075 39.2064 0 87.4989 0Z" fill="white"/>
</mask>
<g mask="url(#mask1_9_133)">
<path fill-rule="evenodd" clip-rule="evenodd" d="M60.3653 99.6437C65.9986 99.6437 70.5712 104.217 70.5712 109.851C70.5712 115.483 65.9986 120.055 60.3653 120.055C54.7331 120.055 50.1606 115.483 50.1606 109.851C50.1595 104.218 54.7331 99.6437 60.3653 99.6437Z" fill="white"/>
</g>
<mask id="mask2_9_133" style="mask-type:luminance" maskUnits="userSpaceOnUse" x="0" y="0" width="175" height="175">
<path d="M87.4989 0C135.792 0 175 39.2075 175 87.5C175 135.794 135.792 175 87.4989 175C39.2064 175 2.20487e-08 135.792 2.20487e-08 87.5C-0.0010736 39.2075 39.2064 0 87.4989 0Z" fill="white"/>
</mask>
<g mask="url(#mask2_9_133)">
<path fill-rule="evenodd" clip-rule="evenodd" d="M37.9686 171.582C29.0972 156.355 22.3453 118.388 20.7778 108.404C18.7669 95.5983 14.393 88.0035 21.2319 85.7489C28.5658 83.33 34.0026 103.466 48.4857 119.38C64.0779 136.514 84.8471 125.217 88.944 135.991C91.0494 141.526 76.7778 146.523 70.8117 154.301C61.1147 166.942 61.9801 175.048 62.4815 186.901" fill="white"/>
</g>
<mask id="mask3_9_133" style="mask-type:luminance" maskUnits="userSpaceOnUse" x="0" y="0" width="175" height="175">
<path d="M87.4989 0C135.792 0 175 39.2075 175 87.5C175 135.794 135.792 175 87.4989 175C39.2064 175 2.20487e-08 135.792 2.20487e-08 87.5C-0.0010736 39.2075 39.2064 0 87.4989 0Z" fill="white"/>
</mask>
<g mask="url(#mask3_9_133)">
<path fill-rule="evenodd" clip-rule="evenodd" d="M115.095 188.91C113.647 182.486 114.607 175.359 114.06 168.823C113.191 158.437 110.036 147.564 103.677 139.17C100.823 135.401 97.4654 131.78 93.4329 129.258C89.3273 126.691 84.7172 124.99 80.9016 121.956C77.8181 119.504 73.821 114.921 74.4792 110.587C75.2511 105.492 81.8721 106.023 85.5611 106.348C97.2227 107.375 108.949 108.902 120.406 105.436C131.019 102.226 138.523 94.2198 145.152 85.794C146.273 84.3693 150.304 78.9432 152.918 80.3593C157.161 82.6547 156.638 90.7445 156.793 94.6643C157.427 110.568 155.564 126.136 150.351 141.239C146.363 152.793 141.009 165.262 132.443 174.197" fill="white"/>
</g>
</svg>
