<svg width="68" height="88" viewBox="0 0 68 88" fill="none" xmlns="http://www.w3.org/2000/svg">
<mask id="mask0_50_2" style="mask-type:luminance" maskUnits="userSpaceOnUse" x="0" y="0" width="68" height="72">
<path d="M33.9996 0C52.7651 0 68 16.0147 68 35.7403C68 55.4663 52.7651 71.4805 33.9996 71.4805C15.2345 71.4805 8.56748e-09 55.4658 8.56748e-09 35.7403C-0.000417169 16.0147 15.2345 0 33.9996 0Z" fill="white"/>
</mask>
<g mask="url(#mask0_50_2)">
<path fill-rule="evenodd" clip-rule="evenodd" d="M44.5917 29.7504C47.2404 29.7504 49.3914 32.0114 49.3914 34.7961C49.3914 37.5803 47.2404 39.8414 44.5917 39.8414C41.9427 39.8414 39.7917 37.5803 39.7917 34.7961C39.7917 32.0114 41.9422 29.7504 44.5917 29.7504Z" fill="#2C9B54"/>
</g>
<mask id="mask1_50_2" style="mask-type:luminance" maskUnits="userSpaceOnUse" x="0" y="0" width="68" height="72">
<path d="M33.9996 0C52.7651 0 68 16.0147 68 35.7403C68 55.4663 52.7651 71.4805 33.9996 71.4805C15.2345 71.4805 8.56748e-09 55.4658 8.56748e-09 35.7403C-0.000417169 16.0147 15.2345 0 33.9996 0Z" fill="white"/>
</mask>
<g mask="url(#mask1_50_2)">
<path fill-rule="evenodd" clip-rule="evenodd" d="M23.4562 40.7006C25.6452 40.7006 27.4219 42.5687 27.4219 44.8697C27.4219 47.1702 25.6452 49.0379 23.4562 49.0379C21.2677 49.0379 19.491 47.1702 19.491 44.8697C19.4905 42.5691 21.2677 40.7006 23.4562 40.7006Z" fill="#2C9B54"/>
</g>
<mask id="mask2_50_2" style="mask-type:luminance" maskUnits="userSpaceOnUse" x="0" y="0" width="68" height="72">
<path d="M33.9996 0C52.7651 0 68 16.0147 68 35.7403C68 55.4663 52.7651 71.4805 33.9996 71.4805C15.2345 71.4805 8.56748e-09 55.4658 8.56748e-09 35.7403C-0.000417169 16.0147 15.2345 0 33.9996 0Z" fill="white"/>
</mask>
<g mask="url(#mask2_50_2)">
<path fill-rule="evenodd" clip-rule="evenodd" d="M14.7535 70.0842C11.3064 63.8649 8.68274 48.3567 8.07366 44.2788C7.29228 39.048 5.5927 35.9459 8.25012 35.025C11.0999 34.037 13.2125 42.2616 18.8402 48.7619C24.8989 55.7605 32.9692 51.1462 34.5611 55.5469C35.3792 57.8075 29.8337 59.8489 27.5154 63.0256C23.7475 68.1893 24.0837 71.5002 24.2785 76.3416" fill="#2C9B54"/>
</g>
<mask id="mask3_50_2" style="mask-type:luminance" maskUnits="userSpaceOnUse" x="0" y="0" width="68" height="72">
<path d="M33.9996 0C52.7651 0 68 16.0147 68 35.7403C68 55.4663 52.7651 71.4805 33.9996 71.4805C15.2345 71.4805 8.56748e-09 55.4658 8.56748e-09 35.7403C-0.000417169 16.0147 15.2345 0 33.9996 0Z" fill="white"/>
</mask>
<g mask="url(#mask3_50_2)">
<path fill-rule="evenodd" clip-rule="evenodd" d="M44.7227 77.1621C44.16 74.5384 44.5329 71.627 44.3206 68.9576C43.9827 64.7153 42.757 60.2738 40.286 56.8454C39.1768 55.3057 37.8722 53.827 36.3053 52.7969C34.71 51.7484 32.9187 51.0533 31.436 49.814C30.2379 48.8124 28.6847 46.9408 28.9405 45.1704C29.2404 43.0891 31.8132 43.3062 33.2466 43.4391C37.778 43.8583 42.3344 44.4819 46.7865 43.0663C50.9103 41.7551 53.826 38.485 56.402 35.0434C56.8376 34.4615 58.4037 32.2451 59.4195 32.8236C61.0682 33.7611 60.865 37.0655 60.9251 38.6666C61.1716 45.1625 60.4478 51.5216 58.422 57.6905C56.8726 62.4099 54.7921 67.503 51.4635 71.1525" fill="#2C9B54"/>
</g>
<path d="M10.986 85L15.424 75.2H16.81L21.262 85H19.792L15.83 75.984H16.39L12.428 85H10.986ZM12.876 82.55L13.254 81.43H18.77L19.176 82.55H12.876ZM23.6199 83.208L23.6479 81.486L27.9179 77.58H29.5419L26.2659 80.8L25.5379 81.416L23.6199 83.208ZM22.5279 85V74.612H23.8719V85H22.5279ZM28.1979 85L25.2859 81.388L26.1539 80.31L29.8499 85H28.1979ZM35.0889 85.084C34.4542 85.084 33.8802 84.944 33.3669 84.664C32.8629 84.3747 32.4615 83.95 32.1629 83.39C31.8735 82.83 31.7289 82.13 31.7289 81.29C31.7289 80.45 31.8782 79.75 32.1769 79.19C32.4849 78.63 32.8909 78.21 33.3949 77.93C33.9082 77.65 34.4729 77.51 35.0889 77.51C35.8169 77.51 36.4609 77.6687 37.0209 77.986C37.5809 78.3033 38.0242 78.7467 38.3509 79.316C38.6775 79.876 38.8409 80.534 38.8409 81.29C38.8409 82.046 38.6775 82.7087 38.3509 83.278C38.0242 83.8473 37.5809 84.2907 37.0209 84.608C36.4609 84.9253 35.8169 85.084 35.0889 85.084ZM31.1549 85V74.612H32.4989V79.554L32.3589 81.276L32.4429 82.998V85H31.1549ZM34.9769 83.908C35.4529 83.908 35.8775 83.8007 36.2509 83.586C36.6335 83.3713 36.9322 83.068 37.1469 82.676C37.3709 82.2747 37.4829 81.8127 37.4829 81.29C37.4829 80.758 37.3709 80.3007 37.1469 79.918C36.9322 79.526 36.6335 79.2227 36.2509 79.008C35.8775 78.7933 35.4529 78.686 34.9769 78.686C34.5102 78.686 34.0855 78.7933 33.7029 79.008C33.3295 79.2227 33.0309 79.526 32.8069 79.918C32.5922 80.3007 32.4849 80.758 32.4849 81.29C32.4849 81.8127 32.5922 82.2747 32.8069 82.676C33.0309 83.068 33.3295 83.3713 33.7029 83.586C34.0855 83.8007 34.5102 83.908 34.9769 83.908ZM45.2355 85V83.432L45.1655 83.138V80.464C45.1655 79.8947 44.9975 79.456 44.6615 79.148C44.3348 78.8307 43.8401 78.672 43.1775 78.672C42.7388 78.672 42.3095 78.7467 41.8895 78.896C41.4695 79.036 41.1148 79.2273 40.8255 79.47L40.2655 78.462C40.6481 78.154 41.1055 77.9207 41.6375 77.762C42.1788 77.594 42.7435 77.51 43.3315 77.51C44.3488 77.51 45.1328 77.7573 45.6835 78.252C46.2341 78.7467 46.5095 79.5027 46.5095 80.52V85H45.2355ZM42.7995 85.084C42.2488 85.084 41.7635 84.9907 41.3435 84.804C40.9328 84.6173 40.6155 84.3607 40.3915 84.034C40.1675 83.698 40.0555 83.32 40.0555 82.9C40.0555 82.4987 40.1488 82.1347 40.3355 81.808C40.5315 81.4813 40.8441 81.22 41.2735 81.024C41.7121 80.828 42.3001 80.73 43.0375 80.73H45.3895V81.696H43.0935C42.4215 81.696 41.9688 81.808 41.7355 82.032C41.5021 82.256 41.3855 82.5267 41.3855 82.844C41.3855 83.208 41.5301 83.502 41.8195 83.726C42.1088 83.9407 42.5101 84.048 43.0235 84.048C43.5275 84.048 43.9661 83.936 44.3395 83.712C44.7221 83.488 44.9975 83.1613 45.1655 82.732L45.4315 83.656C45.2541 84.0947 44.9415 84.4447 44.4935 84.706C44.0455 84.958 43.4808 85.084 42.7995 85.084ZM49.1819 87.8C48.8273 87.8 48.4819 87.7393 48.1459 87.618C47.8099 87.506 47.5206 87.338 47.2779 87.114L47.8519 86.106C48.0386 86.2833 48.2439 86.4187 48.4679 86.512C48.6919 86.6053 48.9299 86.652 49.1819 86.652C49.5086 86.652 49.7793 86.568 49.9939 86.4C50.2086 86.232 50.4093 85.9333 50.5959 85.504L51.0579 84.482L51.1979 84.314L54.1099 77.58H55.4259L51.8279 85.742C51.6133 86.2647 51.3706 86.6753 51.0999 86.974C50.8386 87.2727 50.5493 87.4827 50.2319 87.604C49.9146 87.7347 49.5646 87.8 49.1819 87.8ZM50.9459 85.238L47.5579 77.58H48.9579L51.8419 84.188L50.9459 85.238Z" fill="#2C9B54"/>
</svg>
